<svg width="52" height="52" viewBox="0 0 52 52" fill="none" xmlns="http://www.w3.org/2000/svg">
<path d="M35.0783 4.33331H16.9217C9.03499 4.33331 4.33333 9.03498 4.33333 16.9216V35.0566C4.33333 42.965 9.03499 47.6666 16.9217 47.6666H35.0567C42.9433 47.6666 47.645 42.965 47.645 35.0783V16.9216C47.6667 9.03498 42.965 4.33331 35.0783 4.33331ZM24.9817 29.315L16.9217 37.375H21.6667C22.555 37.375 23.2917 38.1116 23.2917 39C23.2917 39.8883 22.555 40.625 21.6667 40.625H13C12.7833 40.625 12.5667 40.5816 12.3717 40.495C11.9817 40.3216 11.6567 40.0183 11.4833 39.6066C11.4183 39.4116 11.375 39.2166 11.375 39V30.3333C11.375 29.445 12.1117 28.7083 13 28.7083C13.8883 28.7083 14.625 29.445 14.625 30.3333V35.0783L22.685 27.0183C23.3133 26.39 24.3533 26.39 24.9817 27.0183C25.61 27.6466 25.61 28.6866 24.9817 29.315ZM40.625 21.6666C40.625 22.555 39.8883 23.2916 39 23.2916C38.1117 23.2916 37.375 22.555 37.375 21.6666V16.9216L29.315 24.9816C28.99 25.3066 28.5783 25.4583 28.1667 25.4583C27.755 25.4583 27.3433 25.3066 27.0183 24.9816C26.39 24.3533 26.39 23.3133 27.0183 22.685L35.0783 14.625H30.3333C29.445 14.625 28.7083 13.8883 28.7083 13C28.7083 12.1116 29.445 11.375 30.3333 11.375H39C39.2167 11.375 39.4117 11.4183 39.6283 11.505C40.0183 11.6783 40.3433 11.9816 40.5167 12.3933C40.5817 12.5883 40.625 12.7833 40.625 13V21.6666Z" fill="#2F4FD2"/>
</svg>
