<svg width="52" height="52" viewBox="0 0 52 52" fill="none" xmlns="http://www.w3.org/2000/svg">
<path d="M19.5 4.33331C13.8233 4.33331 9.20831 8.94831 9.20831 14.625C9.20831 20.1933 13.5633 24.7 19.24 24.895C19.4133 24.8733 19.5866 24.8733 19.7166 24.895C19.76 24.895 19.7816 24.895 19.825 24.895C19.8466 24.895 19.8466 24.895 19.8683 24.895C25.415 24.7 29.77 20.1933 29.7916 14.625C29.7916 8.94831 25.1766 4.33331 19.5 4.33331Z" fill="url(#paint0_linear_2157_86)"/>
<path d="M30.5066 30.6583C24.4616 26.6283 14.6033 26.6283 8.51498 30.6583C5.76331 32.5 4.24664 34.9916 4.24664 37.6566C4.24664 40.3216 5.76331 42.7916 8.49331 44.6116C11.5266 46.6483 15.5133 47.6666 19.5 47.6666C23.4866 47.6666 27.4733 46.6483 30.5066 44.6116C33.2366 42.77 34.7533 40.3 34.7533 37.6133C34.7316 34.9483 33.2366 32.4783 30.5066 30.6583Z" fill="url(#paint1_linear_2157_86)"/>
<path d="M43.3116 15.9033C43.6583 20.1066 40.6683 23.79 36.53 24.2883C36.5083 24.2883 36.5083 24.2883 36.4866 24.2883H36.4216C36.2916 24.2883 36.1616 24.2883 36.0533 24.3316C33.9516 24.44 32.0233 23.7683 30.5716 22.5333C32.8033 20.54 34.0816 17.55 33.8216 14.3C33.67 12.545 33.0633 10.9416 32.1533 9.57665C32.9766 9.16498 33.93 8.90498 34.905 8.81831C39.1516 8.44998 42.9433 11.6133 43.3116 15.9033Z" fill="url(#paint2_linear_2157_86)"/>
<path d="M47.645 35.945C47.4716 38.0466 46.1283 39.8666 43.875 41.1016C41.7083 42.2933 38.9783 42.8566 36.27 42.7916C37.83 41.3833 38.74 39.6283 38.9133 37.765C39.13 35.0783 37.8516 32.5 35.295 30.4417C33.8433 29.2933 32.1533 28.3833 30.3116 27.7116C35.1 26.325 41.1233 27.2566 44.8283 30.2466C46.8216 31.85 47.84 33.865 47.645 35.945Z" fill="url(#paint3_linear_2157_86)"/>
<defs>
<linearGradient id="paint0_linear_2157_86" x1="25.9576" y1="4.33331" x2="25.9576" y2="47.6666" gradientUnits="userSpaceOnUse">
<stop stop-color="#387AC6"/>
<stop offset="1" stop-color="#210BE3"/>
</linearGradient>
<linearGradient id="paint1_linear_2157_86" x1="25.9576" y1="4.33331" x2="25.9576" y2="47.6666" gradientUnits="userSpaceOnUse">
<stop stop-color="#387AC6"/>
<stop offset="1" stop-color="#210BE3"/>
</linearGradient>
<linearGradient id="paint2_linear_2157_86" x1="25.9576" y1="4.33331" x2="25.9576" y2="47.6666" gradientUnits="userSpaceOnUse">
<stop stop-color="#387AC6"/>
<stop offset="1" stop-color="#210BE3"/>
</linearGradient>
<linearGradient id="paint3_linear_2157_86" x1="25.9576" y1="4.33331" x2="25.9576" y2="47.6666" gradientUnits="userSpaceOnUse">
<stop stop-color="#387AC6"/>
<stop offset="1" stop-color="#210BE3"/>
</linearGradient>
</defs>
</svg>
