<svg width="52" height="52" viewBox="0 0 52 52" fill="none" xmlns="http://www.w3.org/2000/svg">
<path d="M12.4367 34.6666C12.675 33.605 12.2417 32.0883 11.4833 31.33L6.21832 26.065C4.57166 24.4183 3.92166 22.6633 4.39832 21.1466C4.89666 19.63 6.43499 18.59 8.73166 18.2L15.4917 17.0733C16.4667 16.9 17.6583 16.0333 18.1133 15.145L21.84 7.66998C22.9233 5.52498 24.3967 4.33331 26 4.33331C27.6033 4.33331 29.0767 5.52498 30.16 7.66998L33.8867 15.145C34.1683 15.7083 34.7533 16.25 35.3817 16.6183L12.0467 39.9533C11.7433 40.2566 11.2233 39.975 11.31 39.5416L12.4367 34.6666Z" fill="#3158CF"/>
<path d="M40.5167 31.33C39.7367 32.11 39.3033 33.605 39.5633 34.6666L41.0583 41.1883C41.6867 43.8966 41.2967 45.9333 39.9533 46.9083C39.4117 47.2983 38.7617 47.4933 38.0033 47.4933C36.8983 47.4933 35.5983 47.0816 34.1683 46.2366L27.82 42.4666C26.8233 41.8816 25.1767 41.8816 24.18 42.4666L17.8317 46.2366C15.4267 47.645 13.3683 47.8833 12.0467 46.9083C11.5483 46.54 11.18 46.0416 10.9417 45.3917L37.2883 19.045C38.285 18.0483 39.6933 17.5933 41.0583 17.8316L43.2467 18.2C45.5433 18.59 47.0817 19.63 47.58 21.1466C48.0567 22.6633 47.4067 24.4183 45.76 26.065L40.5167 31.33Z" fill="#3158CF"/>
</svg>
