<svg width="52" height="52" viewBox="0 0 52 52" fill="none" xmlns="http://www.w3.org/2000/svg">
<path d="M25.87 4.78831L20.6483 16.9433H15.4267C14.56 16.9433 13.715 17.0083 12.8917 17.1816L15.0583 11.9816L15.145 11.7866L15.275 11.44C15.34 11.2883 15.3833 11.1583 15.4483 11.05C17.9617 5.22165 20.7783 3.40165 25.87 4.78831Z" fill="#2F4ED2"/>
<path d="M40.5817 17.5283L40.5383 17.5066C39.2383 17.1383 37.9167 16.9433 36.5733 16.9433H23.01L27.885 5.61165L27.95 5.45998C28.2533 5.56831 28.5783 5.71998 28.9033 5.82831L33.6917 7.84331C36.3567 8.94831 38.22 10.0966 39.3683 11.4833C39.5633 11.7433 39.7367 11.9816 39.91 12.2633C40.105 12.5666 40.2567 12.87 40.3433 13.195C40.43 13.39 40.495 13.5633 40.5383 13.7583C40.8633 14.8633 40.885 16.12 40.5817 17.5283Z" fill="#2F4ED2"/>
<path d="M27.1267 38.2633H27.6683C28.3183 38.2633 28.86 37.6783 28.86 36.9633C28.86 36.0533 28.6 35.9233 28.0367 35.7066L27.1267 35.3816V38.2633Z" fill="#2F4ED2"/>
<path d="M39.6283 20.6266C38.6533 20.345 37.635 20.1933 36.5733 20.1933H15.4267C13.9533 20.1933 12.5667 20.475 11.2667 21.0383C7.49667 22.6633 4.85333 26.4116 4.85333 30.7666V34.9916C4.85333 35.5116 4.89667 36.01 4.96167 36.53C5.43833 43.42 9.12167 47.1033 16.0117 47.5583C16.51 47.6233 17.0083 47.6666 17.55 47.6666H34.45C42.4667 47.6666 46.6917 43.8533 47.1033 36.27C47.125 35.8583 47.1467 35.425 47.1467 34.9916V30.7666C47.1467 25.9783 43.9617 21.9483 39.6283 20.6266ZM28.7733 33.5833C29.77 33.93 31.1133 34.6666 31.1133 36.9633C31.1133 38.935 29.575 40.5166 27.6683 40.5166H27.1267V40.9933C27.1267 41.6216 26.6283 42.12 26 42.12C25.3717 42.12 24.8733 41.6216 24.8733 40.9933V40.5166H24.6783C22.5983 40.5166 20.8867 38.7616 20.8867 36.595C20.8867 35.9666 21.385 35.4683 22.0133 35.4683C22.6417 35.4683 23.14 35.9666 23.14 36.595C23.14 37.505 23.8333 38.2633 24.6783 38.2633H24.8733V34.6016L23.2267 34.0166C22.23 33.67 20.8867 32.9333 20.8867 30.6366C20.8867 28.665 22.425 27.0833 24.3317 27.0833H24.8733V26.6066C24.8733 25.9783 25.3717 25.48 26 25.48C26.6283 25.48 27.1267 25.9783 27.1267 26.6066V27.0833H27.3217C29.4017 27.0833 31.1133 28.8383 31.1133 31.005C31.1133 31.6333 30.615 32.1316 29.9867 32.1316C29.3583 32.1316 28.86 31.6333 28.86 31.005C28.86 30.095 28.1667 29.3366 27.3217 29.3366H27.1267V32.9983L28.7733 33.5833Z" fill="#2F4ED2"/>
<path d="M23.14 30.6366C23.14 31.5466 23.4 31.6766 23.9633 31.8933L24.8733 32.2183V29.3366H24.3317C23.66 29.3366 23.14 29.9216 23.14 30.6366Z" fill="#2F4ED2"/>
</svg>
